<?xml version="1.0" standalone="no"?>
<!DOCTYPE svg PUBLIC "-//W3C//DTD SVG 20010904//EN"
 "http://www.w3.org/TR/2001/REC-SVG-20010904/DTD/svg10.dtd">
<svg version="1.0" xmlns="http://www.w3.org/2000/svg"
 width="260.000000pt" height="260.000000pt" viewBox="0 0 260.000000 260.000000"
 preserveAspectRatio="xMidYMid meet">
<metadata>
Created by potrace 1.11, written by Peter Selinger 2001-2013
</metadata>
<g transform="translate(0.000000,260.000000) scale(0.100000,-0.100000)"
fill="#000000" stroke="none">
<path d="M8 2576 c-3 -10 -2 -786 1 -841 1 -19 8 -20 148 -20 l148 1 5 284 5
285 415 0 415 0 0 -377 c0 -207 3 -379 7 -383 5 -6 172 -9 274 -6 20 1 21 7
22 89 0 48 0 92 1 97 1 7 100 10 281 10 178 0 281 4 283 10 2 6 3 73 3 150
l-1 140 -78 5 c-44 3 -80 3 -82 0 -2 -3 -38 -3 -80 0 -42 3 -78 3 -80 0 -2 -3
-38 -3 -80 0 -42 3 -79 2 -82 -3 -2 -4 -8 -5 -13 -2 -5 3 -24 6 -42 7 l-33 1
0 281 0 281 -717 1 c-494 0 -718 -3 -720 -10z"/>
<path d="M1721 2581 c-13 -9 -10 -289 3 -294 6 -2 132 -3 279 -2 148 0 271 -4
274 -9 4 -6 7 -719 4 -807 -1 -14 -39 -16 -368 -17 -203 0 -375 -1 -383 -1
-14 -1 -16 -21 -14 -141 0 -77 2 -144 3 -150 0 -6 41 -10 99 -10 l97 0 0 -282
0 -283 140 0 c77 -1 145 0 150 2 7 2 10 102 10 281 l0 277 285 5 285 5 0 715
0 715 -427 1 c-235 0 -432 -2 -437 -5z"/>
<path d="M575 1738 l0 -283 -277 -1 c-153 0 -281 -4 -285 -8 -9 -9 -11 -1396
-2 -1416 5 -11 21 -15 61 -13 29 2 62 3 73 3 11 -1 38 -1 60 -1 22 0 49 0 60
0 11 0 38 0 60 0 22 0 49 0 60 0 11 0 38 0 60 0 22 0 49 0 60 0 11 0 38 0 60
0 22 0 49 0 60 0 30 0 88 0 105 1 8 1 33 -1 55 -3 22 -2 48 0 59 5 13 7 16 7
12 -1 -4 -6 -1 -9 7 -5 22 8 20 284 -2 301 -9 6 -20 9 -25 6 -8 -6 -76 -7 -93
-3 -5 1 -12 1 -18 0 -32 -6 -97 -5 -101 2 -3 5 -10 6 -15 2 -13 -8 -97 -9
-105 -2 -3 4 -16 4 -28 0 -25 -9 -87 -8 -102 0 -5 4 -16 3 -24 -2 -39 -24 -40
-15 -40 416 l0 414 383 2 382 3 1 148 c1 100 -3 147 -10 148 -6 1 -51 1 -101
1 l-90 1 1 282 1 283 -151 1 -151 2 0 -283z"/>
<path d="M1151 1075 c-4 -5 -7 -50 -7 -100 l1 -90 -275 1 c-151 1 -280 -1
-285 -3 -8 -3 -13 -262 -6 -293 0 -3 124 -5 274 -4 149 0 277 -1 282 -3 7 -2
10 -101 10 -283 0 -153 1 -277 4 -275 2 3 10 0 18 -6 10 -9 17 -8 28 1 8 7 15
9 15 4 0 -5 26 -8 57 -6 32 1 67 2 78 1 11 0 38 0 60 0 22 0 49 0 60 0 11 0
38 0 60 0 22 0 49 0 60 0 11 0 38 0 60 0 22 0 49 0 60 0 11 0 38 0 60 0 22 0
49 0 60 0 11 0 38 0 60 0 22 0 49 0 60 0 11 0 38 0 60 0 22 0 49 0 60 0 11 0
38 0 60 0 22 0 49 0 60 0 11 0 38 0 60 0 22 0 49 0 60 0 11 0 38 0 60 0 22 0
49 0 60 0 11 0 38 0 60 0 22 0 54 1 71 1 l30 0 0 432 -1 433 -130 2 c-71 1
-139 0 -151 -3 -21 -4 -21 -7 -21 -258 0 -139 -3 -258 -7 -264 -3 -6 -2 -12 4
-14 5 -2 6 -9 1 -17 -8 -12 -51 -14 -231 -15 -122 -1 -224 2 -227 7 -2 4 -9 5
-14 1 -9 -5 -83 -8 -104 -4 -5 1 -14 1 -20 0 -32 -6 -97 -5 -101 2 -3 5 -10 6
-15 2 -14 -8 -118 -11 -113 -2 2 3 1 9 -3 11 -5 3 -8 172 -7 376 0 204 -2 372
-5 372 -35 7 -284 2 -290 -6z"/>
</g>
</svg>
